# xmcd
#
# Track frame offsets:
#	150
#	16259
#	34690
#	53202
#	67880
#	85906
#	105714
#	123929
#	142144
#	158982
#	179627
#	201028
#	215085
#	232922
#	253540
#	267597
#	282437
#	296899
#	316113
#	332951
#
# Disc length: 4643 seconds
#
# Revision: 0
# Processed by: cddbd v1.4PL0 Copyright (c) Steve Scherf et al.
# Submitted via: audiograbber 1.80
#
DISCID=34122114
DTITLE=Ronnie Milsap - Ronnie Milsap 40 #1 Hits  Disc 2 of 2
DYEAR=1900
DGENRE=
TTITLE0=He Got You
TTITLE1=Inside
TTITLE2=Stranger In My House
TTITLE3=Don't You Know How Much I Love You
TTITLE4=Show Her
TTITLE5=Still Losing You
TTITLE6=She Keeps The Home Fires Burning
TTITLE7=Lost In The Fifties Tonight
TTITLE8=Happy, Happy Birthday Baby
TTITLE9=In Love
TTITLE10=How Do I Turn You On
TTITLE11=Snap Your Fingers
TTITLE12=Make No Mistake She's Mine
TTITLE13=Where Do The Nights Go
TTITLE14=Don't You Ever Get Tired (Of Hurting Me)
TTITLE15=A Woman In Love
TTITLE16=Stranger Things Have Happened
TTITLE17=Since I Don't Have You
TTITLE18=Livin' On Love (New Track)
TTITLE19=Time, Love and Money (New Track)
EXTD=
EXTT0=
EXTT1=
EXTT2=
EXTT3=
EXTT4=
EXTT5=
EXTT6=
EXTT7=
EXTT8=
EXTT9=
EXTT10=
EXTT11=
EXTT12=
EXTT13=
EXTT14=
EXTT15=
EXTT16=
EXTT17=
EXTT18=
EXTT19=
PLAYORDER=
